<svg width="28" height="28" viewBox="0 0 28 28" fill="none" xmlns="http://www.w3.org/2000/svg">
<path fill-rule="evenodd" clip-rule="evenodd" d="M14 0C21.732 0 28 6.26802 28 14C28 21.732 21.732 28 14 28C6.26802 28 0 21.732 0 14C0 6.26802 6.26802 0 14 0Z" fill="#E2E2E2"/>
<path d="M15.8191 27.8825V17.0686H18.8677L19.2718 13.2627H15.8191L15.8242 11.3576C15.8242 10.3649 15.9185 9.83326 17.3443 9.83326H19.2504V6.02665H16.2011C12.5384 6.02665 11.2494 7.87286 11.2494 10.9781V13.2629H8.9661V17.0693H11.2494V27.7291C12.1389 27.9064 13.0584 28 14 28C14.6083 28 15.2159 27.9607 15.8191 27.8825Z" fill="#333333"/>
</svg>
