<svg width="28" height="27" viewBox="0 0 28 27" fill="none" xmlns="http://www.w3.org/2000/svg">
<path d="M28 13.5C28 20.9558 21.732 27 14 27C6.26801 27 0 20.9558 0 13.5C0 6.04416 6.26801 0 14 0C21.732 0 28 6.04416 28 13.5Z" fill="#E2E2E2"/>
<path d="M10.5 12.6964V14.625H13.8083C13.675 15.4527 12.8083 17.0518 10.5 17.0518C8.50833 17.0518 6.88333 15.4607 6.88333 13.5C6.88333 11.5393 8.50833 9.94821 10.5 9.94821C11.6333 9.94821 12.3917 10.4143 12.825 10.8161L14.4083 9.34554C13.3917 8.42946 12.075 7.875 10.5 7.875C7.275 7.875 4.66667 10.3902 4.66667 13.5C4.66667 16.6098 7.275 19.125 10.5 19.125C13.8667 19.125 16.1 16.8429 16.1 13.6286C16.1 13.2589 16.0583 12.9777 16.0083 12.6964H10.5Z" fill="#333333"/>
<path d="M23 12.6964H21.3334V11.0892H19.6667V12.6964H18V14.3035H19.6667V15.9107H21.3334V14.3035H23" fill="#333333"/>
</svg>
