<svg width="28" height="29" viewBox="0 0 28 29" fill="none" xmlns="http://www.w3.org/2000/svg">
<path d="M14 29C6.26801 29 -1.55829e-05 22.5081 0 14.5C1.55829e-05 6.49185 6.26803 0 14 0C21.732 0 28 6.49187 28 14.5C28 22.5081 21.732 29 14 29Z" fill="#E2E2E2"/>
<path d="M11.0837 14.5C11.0837 12.8317 12.3891 11.4789 13.9999 11.4789C15.6107 11.4789 16.9168 12.8317 16.9168 14.5C16.9168 16.1683 15.6107 17.5211 13.9999 17.5211C12.3891 17.5211 11.0837 16.1683 11.0837 14.5ZM9.5069 14.5C9.5069 17.0701 11.5184 19.1535 13.9999 19.1535C16.4814 19.1535 18.4929 17.0701 18.4929 14.5C18.4929 11.9299 16.4814 9.84651 13.9999 9.84651C11.5184 9.84651 9.5069 11.9297 9.5069 14.5ZM17.6209 9.66199C17.6208 9.87708 17.6823 10.0874 17.7976 10.2663C17.9129 10.4451 18.0768 10.5846 18.2687 10.667C18.4605 10.7494 18.6716 10.771 18.8753 10.7291C19.079 10.6872 19.2661 10.5837 19.413 10.4317C19.5599 10.2797 19.66 10.086 19.7006 9.87502C19.7412 9.66408 19.7205 9.44541 19.6411 9.24666C19.5617 9.04792 19.4272 8.87802 19.2546 8.75845C19.0819 8.63888 18.879 8.57502 18.6713 8.57493C18.3929 8.57506 18.1256 8.68962 17.9287 8.89345C17.7318 9.09727 17.6211 9.37369 17.6209 9.66199ZM10.4649 21.8767C9.61183 21.8365 9.14815 21.6893 8.84001 21.565C8.43149 21.4003 8.14001 21.2041 7.83355 20.8871C7.52709 20.5701 7.33739 20.2685 7.17905 19.8454C7.05894 19.5264 6.91684 19.046 6.87806 18.1625C6.83564 17.2072 6.82717 16.9203 6.82717 14.5001C6.82717 12.08 6.83634 11.7939 6.87806 10.8378C6.91691 9.95424 7.06005 9.4748 7.17905 9.15486C7.33809 8.73175 7.52751 8.42986 7.83355 8.11245C8.13959 7.79505 8.43079 7.59857 8.84001 7.43458C9.14801 7.31017 9.61183 7.16299 10.4649 7.12283C11.3872 7.07889 11.6643 7.07012 13.9999 7.07012C16.3355 7.07012 16.6129 7.07947 17.536 7.12297C18.3891 7.16321 18.852 7.31147 19.1609 7.43472C19.5694 7.59872 19.8609 7.79563 20.1673 8.1126C20.4738 8.42957 20.6628 8.73189 20.8218 9.155C20.942 9.474 21.0841 9.95439 21.1228 10.8379C21.1653 11.794 21.1737 12.0802 21.1737 14.5003C21.1737 16.9204 21.1653 17.2066 21.1228 18.1626C21.084 19.0462 20.9412 19.5264 20.8218 19.8456C20.6628 20.2687 20.4734 20.5706 20.1673 20.8872C19.8613 21.2039 19.5694 21.4004 19.1609 21.5651C18.8529 21.6895 18.3891 21.8367 17.536 21.8769C16.6136 21.9208 16.3366 21.9296 13.9999 21.9296C11.6633 21.9296 11.387 21.9207 10.4649 21.8767ZM10.3925 5.49237C9.46098 5.53631 8.82447 5.68928 8.26861 5.91331C7.69328 6.14466 7.20559 6.45503 6.7186 6.95861C6.23161 7.4622 5.93271 7.96738 5.70934 8.56398C5.49304 9.14007 5.34534 9.79895 5.30292 10.7637C5.2598 11.73 5.24993 12.0389 5.24993 14.5C5.24993 16.9611 5.2598 17.27 5.30292 18.2363C5.34534 19.2011 5.49304 19.8599 5.70934 20.436C5.93271 21.0319 6.23168 21.538 6.7186 22.0414C7.20551 22.5447 7.69258 22.8547 8.26861 23.0867C8.82552 23.3107 9.46098 23.4637 10.3925 23.5076C11.3259 23.5515 11.6237 23.5625 13.9999 23.5625C16.3761 23.5625 16.6744 23.5523 17.6074 23.5076C18.5389 23.4637 19.175 23.3107 19.7312 23.0867C20.3066 22.8547 20.7943 22.545 21.2812 22.0414C21.7682 21.5378 22.0665 21.0319 22.2905 20.436C22.5068 19.8599 22.6552 19.201 22.6969 18.2363C22.7393 17.2693 22.7492 16.9611 22.7492 14.5C22.7492 12.0389 22.7393 11.73 22.6969 10.7637C22.6545 9.79888 22.5068 9.13971 22.2905 8.56398C22.0665 7.96811 21.7675 7.463 21.2812 6.95861C20.795 6.45423 20.3066 6.14466 19.7319 5.91331C19.175 5.68928 18.5389 5.53558 17.6081 5.49237C16.675 5.44822 16.3768 5.43749 14.001 5.43749C11.6251 5.43749 11.3259 5.44771 10.3925 5.49237Z" fill="#333333"/>
</svg>
