<svg width="28" height="28" viewBox="0 0 28 28" fill="none" xmlns="http://www.w3.org/2000/svg">
<path d="M28 14C28 21.7307 21.7307 28 14 28C6.26925 28 0 21.7307 0 14C0 6.26925 6.26925 0 14 0C21.7307 0 28 6.26925 28 14Z" fill="#E2E2E2"/>
<path d="M13.4204 5.71137C10.4955 6.02517 7.58251 8.27505 7.4641 11.4959C7.38713 13.4616 8.21011 14.9359 10.1758 15.3503C10.4008 14.4208 10.4422 13.9175 10.4422 13.9175C10.4422 13.9175 9.5778 13.0886 9.48899 12.5617C8.76666 8.32241 14.6223 5.42718 17.6951 8.38754C19.8147 10.442 18.4174 16.7595 14.9953 16.1023C11.7152 15.4747 16.5998 10.448 13.9828 9.45919C11.8573 8.65397 10.7264 11.9163 11.7329 13.5327C11.1409 16.3154 9.86792 18.9383 10.383 22.4256C12.0586 21.2711 12.6211 19.0567 13.0829 16.7476C13.9236 17.2331 14.3736 17.7423 15.4452 17.8193C19.4003 18.1094 21.6087 14.0596 21.0699 10.3177C20.5844 7.00209 17.1149 5.31468 13.4204 5.71137Z" fill="#333333"/>
</svg>
