<svg width="28" height="29" viewBox="0 0 28 29" fill="none" xmlns="http://www.w3.org/2000/svg">
<path d="M28 14.5C28 22.5081 21.732 29 14 29C6.26801 29 0 22.5081 0 14.5C0 6.49187 6.26801 0 14 0C21.732 0 28 6.49187 28 14.5Z" fill="#E2E2E2"/>
<path d="M10.9314 21.1458C17.0488 21.1458 20.3943 16.0327 20.3943 11.5987C20.3943 11.4535 20.3913 11.3089 20.3848 11.165C21.0358 10.6898 21.5976 10.1014 22.0439 9.42743C21.4479 9.69473 20.8067 9.87463 20.1339 9.95575C20.8206 9.54035 21.3477 8.88317 21.5965 8.09983C20.9436 8.49057 20.2293 8.76602 19.4845 8.91431C18.8776 8.26209 18.0136 7.85417 17.0568 7.85417C15.2202 7.85417 13.7308 9.35686 13.7308 11.2091C13.7308 11.4725 13.76 11.7286 13.8171 11.9743C11.0529 11.8339 8.60181 10.4987 6.96141 8.46844C6.66596 8.98052 6.51056 9.5625 6.51108 10.155C6.51108 11.3191 7.09822 12.3468 7.99111 12.948C7.46295 12.9318 6.94639 12.7878 6.48485 12.5283C6.48436 12.5424 6.48436 12.5562 6.48436 12.5712C6.48436 14.1962 7.63076 15.553 9.15257 15.8604C8.86675 15.939 8.57182 15.9787 8.27559 15.9785C8.06166 15.9785 7.85316 15.9573 7.65053 15.918C8.07394 17.2512 9.30173 18.2214 10.7574 18.2485C9.61908 19.1487 8.18514 19.6848 6.62666 19.6848C6.36154 19.6851 6.09664 19.6696 5.83333 19.6384C7.30526 20.5902 9.05287 21.1458 10.9314 21.1458Z" fill="#333333"/>
</svg>
